<svg id="Layer_1" enable-background="new 0 0 512 512" height="512" viewBox="0 0 512 512" width="512" xmlns="http://www.w3.org/2000/svg"><g><g fill="#324b5f"><path d="m199.767 94.267c-8.284 0-15-6.716-15-15v-64.267c0-8.284 6.716-15 15-15s15 6.716 15 15v64.267c0 8.284-6.716 15-15 15z"/><path d="m124.894 89.873-16.066-16.066c-5.858-5.858-5.858-15.355 0-21.213 5.857-5.858 15.355-5.858 21.213 0l16.066 16.066c5.858 5.858 5.858 15.355 0 21.213-5.859 5.859-15.357 5.857-21.213 0z"/><path d="m253.427 89.873c-5.858-5.858-5.858-15.355 0-21.213l16.066-16.066c5.857-5.858 15.355-5.858 21.213 0s5.858 15.355 0 21.213l-16.066 16.066c-5.859 5.859-15.357 5.857-21.213 0z"/></g><g><path d="m374.696 251.994c-6.741 6.825-17.844 6.626-24.626-.157l-12.386-12.386c-13.684-13.684-13.684-35.871 0-49.556l86.724-86.715c13.698-13.717 13.644-35.911 0-49.555-13.669-13.669-35.858-13.698-49.555 0l-185.827 185.825-16.285-70.562c-4.204-18.229-17.975-32.745-35.968-37.905-15.588-4.472-32.215-1.304-44.982 8.238-3.502 2.617-5.598 6.702-5.594 11.074l.198 204.024-41.749 41.749c-5.971 5.971-5.971 15.652 0 21.622l89.83 89.83c2.867 2.867 6.756 4.478 10.811 4.478h145.854c13.937 0 27.305-5.545 37.16-15.4l108.492-108.484c13.683-13.687 13.681-35.875-.004-49.56l-24.773-24.773 11.901-11.901c13.425-13.425 14.091-36.032.871-49.658-13.701-14.12-36.296-14.197-50.092-.228z" fill="#e2a570"/><path d="m387.238 239.451c13.683-13.683 13.683-35.872 0-49.555s-35.872-13.683-49.555 0l-49.555 49.555c-13.683 13.683-13.683 35.872 0 49.555 13.692 13.683 35.872 13.683 49.555 0z" fill="#f1b986"/><path d="m136.773 130.984c-15.588-4.472-32.215-1.304-44.982 8.238-3.502 2.617-5.598 6.702-5.594 11.074 0 0 .198 204.024.198 204.024l-41.749 41.749c-5.971 5.971-5.971 15.652 0 21.622l57.399 57.399 99.369-99.369c34.209-34.21 34.209-89.674 0-123.884l-12.387-12.387-16.285-70.562c-4.206-18.229-17.977-32.744-35.969-37.904z" fill="#f1b986"/><path d="m436.793 338.561c-13.683-13.683-35.872-13.683-49.555 0s-35.872 13.683-49.555 0c-13.683-13.692-13.683-35.872 0-49.555l-210.862 210.861 7.654 7.654c2.867 2.867 6.756 4.478 10.811 4.478h145.854c13.937 0 27.305-5.545 37.16-15.4l108.492-108.484c13.684-13.682 13.684-35.871.001-49.554z" fill="#d5985c"/><path d="m461.571 363.339c13.683-13.683 13.683-35.872 0-49.555s-35.872-13.683-49.555 0l-24.778 24.778c-13.683 13.683-13.683 35.863 0 49.555 13.683 13.683 35.872 13.683 49.555 0z" fill="#f1b986"/></g></g></svg>