<?xml version="1.0" encoding="iso-8859-1"?>
<!-- Generator: Adobe Illustrator 19.0.0, SVG Export Plug-In . SVG Version: 6.00 Build 0)  -->
<svg version="1.1" id="Capa_1" xmlns="http://www.w3.org/2000/svg" xmlns:xlink="http://www.w3.org/1999/xlink" x="0px" y="0px"
	 viewBox="0 0 512 512" style="enable-background:new 0 0 512 512;" xml:space="preserve">
<path style="fill:#6576D3;" d="M505.06,505.06L505.06,505.06c-9.253,9.253-24.255,9.253-33.509,0L322.388,355.897l33.509-33.509
	L505.06,471.552C514.313,480.805,514.313,495.807,505.06,505.06z"/>
<path style="fill:#5361AC;" d="M505.06,471.552L355.897,322.388l-16.917,16.591l149.164,149.163
	c9.091,9.091,6.64,19.174,2.048,23.767c5.421-0.43,10.723-2.703,14.87-6.85l0,0C514.313,495.807,514.313,480.805,505.06,471.552z"/>
<circle style="fill:#595959;" cx="211.19" cy="211.19" r="211.19"/>
<path style="fill:#B2F3FF;" d="M211.187,391.469c-48.155,0-93.428-18.753-127.478-52.803c-70.292-70.292-70.292-184.666,0-254.958
	c34.051-34.05,79.323-52.803,127.478-52.803s93.428,18.753,127.478,52.803c70.292,70.292,70.292,184.666,0,254.958
	C304.615,372.716,259.342,391.469,211.187,391.469z"/>
<path style="fill:#73EBFF;" d="M338.665,83.708c-34.051-34.05-79.323-52.803-127.478-52.803c-4.739,0-9.448,0.188-14.123,0.548
	c42.832,3.297,82.656,21.555,113.356,52.255c70.292,70.292,70.292,184.666,0,254.958c-30.7,30.7-70.524,48.957-113.356,52.255
	c4.675,0.36,9.384,0.548,14.123,0.548c48.155,0,93.428-18.753,127.478-52.803C408.957,268.374,408.957,154,338.665,83.708z"/>
<path style="fill:#67D3FB;" d="M163.284,292.451v92.61c-29.813-8.149-57.134-23.952-79.571-46.399
	c-8.963-8.963-16.782-18.636-23.447-28.845v-17.366c0-2.209,1.791-4,4-4h95.018C161.493,288.451,163.284,290.242,163.284,292.451z"
	/>
<path style="fill:#6576D3;" d="M266.302,292.451v90.478c-17.585,5.625-36.128,8.54-55.115,8.54c-16.411,0-32.492-2.174-47.903-6.408
	v-92.61c0-2.209,1.791-4,4-4h95.018C264.511,288.451,266.302,290.242,266.302,292.451z"/>
<path style="fill:#FF647A;" d="M369.32,292.451v5.344c-8.025,14.67-18.245,28.453-30.658,40.867
	c-20.624,20.624-45.359,35.634-72.36,44.267v-90.478c0-2.209,1.791-4,4-4h95.018C367.529,288.451,369.32,290.242,369.32,292.451z"/>
<g>
	<path style="fill:#FBD560;" d="M365.32,288.451h-95.018c-2.209,0-4-1.791-4-4v-95.018c0-2.209,1.791-4,4-4h95.018
		c2.209,0,4,1.791,4,4v95.018C369.32,286.66,367.529,288.451,365.32,288.451z"/>
	<path style="fill:#FBD560;" d="M262.302,185.433h-95.018c-2.209,0-4-1.791-4-4V86.414c0-2.209,1.791-4,4-4h95.018
		c2.209,0,4,1.791,4,4v95.018C266.302,183.642,264.511,185.433,262.302,185.433z"/>
</g>
<path style="fill:#FF7E91;" d="M262.302,288.451h-95.018c-2.209,0-4-1.791-4-4v-95.018c0-2.209,1.791-4,4-4h95.018
	c2.209,0,4,1.791,4,4v95.018C266.302,286.66,264.511,288.451,262.302,288.451z"/>
<g>
</g>
<g>
</g>
<g>
</g>
<g>
</g>
<g>
</g>
<g>
</g>
<g>
</g>
<g>
</g>
<g>
</g>
<g>
</g>
<g>
</g>
<g>
</g>
<g>
</g>
<g>
</g>
<g>
</g>
</svg>
