<?xml version="1.0" encoding="iso-8859-1"?>
<!-- Generator: Adobe Illustrator 19.0.0, SVG Export Plug-In . SVG Version: 6.00 Build 0)  -->
<svg version="1.1" id="Layer_1" xmlns="http://www.w3.org/2000/svg" xmlns:xlink="http://www.w3.org/1999/xlink" x="0px" y="0px"
	 viewBox="0 0 512.001 512.001" style="enable-background:new 0 0 512.001 512.001;" xml:space="preserve">
<ellipse style="fill:#785550;" cx="143.77" cy="99.69" rx="48.1" ry="40.08"/>
<path style="fill:#694B4B;" d="M127.742,99.685c0-17.444,13.396-32.244,32.065-37.751c-5.021-1.481-10.402-2.329-16.032-2.329
	c-26.563,0-48.097,17.945-48.097,40.081s21.534,40.081,48.097,40.081c5.63,0,11.011-0.848,16.032-2.329
	C141.138,131.929,127.742,117.129,127.742,99.685z"/>
<circle style="fill:#5A4146;" cx="143.77" cy="203.9" r="104.21"/>
<path style="fill:#694B4B;" d="M123.445,181.142c0.686,0.209,1.065,0.307,1.065,0.307l10.177,126.196
	c3.001,0.26,6.019,0.459,9.088,0.459c57.553,0,104.21-46.656,104.21-104.21c0-27.221-8.392-44.464-19.125-60.04
	c-18.871-26.691-49.91-44.169-85.085-44.169c-5.386,0-10.634,0.536-15.799,1.323C86.855,108.76,81.716,168.403,123.445,181.142z"/>
<path style="fill:#E2E7F2;" d="M480.452,59.605H304.097c-13.282,0-24.048,10.767-24.048,24.048v128.258
	c0,13.282,10.767,24.048,24.048,24.048h24.048l-13.357,53.427c-0.908,3.632,3.218,6.416,6.246,4.214l79.256-57.641h80.161
	c13.282,0,24.048-10.767,24.048-24.048V83.653C504.5,70.372,493.733,59.605,480.452,59.605z"/>
<path style="fill:#ECF0FA;" d="M480.452,99.685c0-14.449-3.543-28.046-9.703-40.081H313.8c-6.16,12.035-9.703,25.632-9.703,40.081
	c0,48.699,39.478,88.177,88.177,88.177S480.452,148.385,480.452,99.685z"/>
<circle style="fill:#FFDC64;" cx="392.27" cy="99.69" r="64.13"/>
<circle style="fill:#FFF082;" cx="392.27" cy="99.69" r="40.08"/>
<path style="fill:#AFB9D2;" d="M368.226,159.131v28.732c0,4.427,3.589,8.016,8.016,8.016h32.065c4.427,0,8.016-3.589,8.016-8.016
	v-28.732H368.226z"/>
<path style="fill:#959CB5;" d="M368.226,159.13v28.733c0,4.427,3.589,8.016,8.016,8.016h16.032V159.13H368.226z"/>
<path style="fill:#E6AF78;" d="M7.5,476.444V425.19c0-12.699,7.494-24.201,19.11-29.331l67.529-29.825
	c5.808-2.565,9.555-8.316,9.555-14.666v-35.246h80.161v35.246c0,6.349,3.747,12.1,9.555,14.666l67.529,29.825
	c11.616,5.13,19.11,16.633,19.11,29.331v51.254H7.5z"/>
<path style="fill:#D29B6E;" d="M103.694,348.189c12.341,5.148,25.873,8.013,40.081,8.013c14.207,0,27.739-2.865,40.081-8.013
	v-32.068h-80.161L103.694,348.189L103.694,348.189z"/>
<path style="fill:#FFF082;" d="M260.939,395.858l-49.808-21.998c-10.358,27.15-36.569,46.471-67.357,46.471
	S86.775,401.01,76.417,373.86L26.61,395.858C14.994,400.988,7.5,412.49,7.5,425.189v51.255h272.548v-51.255
	C280.048,412.49,272.555,400.988,260.939,395.858z"/>
<path style="fill:#F0C087;" d="M215.852,219.934c-12.872-11.194-41.771-30.989-91.342-38.484c-6.86-1.037-13.778,2.339-16.83,8.57
	c-5.086,10.383-15.902,27.009-37.38,41.661c-4.263,2.908-6.687,7.855-6.687,13.015v4.55c0,42.695,32.219,79.975,74.825,82.734
	c46.688,3.023,85.498-33.951,85.498-79.988v-14.063C223.935,231.04,221.05,224.454,215.852,219.934z"/>
<path style="fill:#E6AF78;" d="M223.935,235.96c-1.231-2.027-6.254-14.435-8.084-16.026c-12.872-11.195-41.771-30.99-91.342-38.484
	c-6.86-1.037-13.778,2.339-16.83,8.57c-1.226,2.503-2.867,5.42-4.834,8.536c-6.154,9.775-16.19,21.938-32.417,33.036
	c-4.301,2.942-6.816,7.892-6.816,13.103v4.55c0,41.206,30.043,77.271,70.437,82.224c-13.809-14.401-22.34-33.902-22.34-55.429
	v-50.397c0-8.248,6.193-15.135,14.399-15.963C145.379,207.735,199.887,219.927,223.935,235.96z"/>
<g>
	<path style="fill:#FFDC64;" d="M19.489,400.255C12.045,406.25,7.5,415.339,7.5,425.189v51.254h56.113V454.34
		c0-6.378-2.534-12.495-7.044-17.005L19.489,400.255z"/>
	<path style="fill:#FFDC64;" d="M268.059,400.255c7.444,5.995,11.989,15.084,11.989,24.934v51.254h-56.113V454.34
		c0-6.378,2.534-12.495,7.044-17.005L268.059,400.255z"/>
</g>
<path d="M360.726,163.972v23.891c0,8.556,6.961,15.516,15.517,15.516h8.532v0.516c0,4.142,3.357,7.5,7.5,7.5s7.5-3.358,7.5-7.5
	v-0.516h8.532c8.556,0,15.516-6.96,15.516-15.516v-23.89c23.718-11.687,40.081-36.108,40.081-64.287
	c0-39.496-32.133-71.629-71.629-71.629s-71.629,32.133-71.629,71.629C320.646,127.865,337.008,152.285,360.726,163.972z
	 M379.927,115.202h24.693l-10.485,41.065c-0.619,0.02-1.237,0.047-1.861,0.047c-0.625,0-1.242-0.027-1.862-0.047L379.927,115.202z
	 M408.822,187.863c0,0.285-0.231,0.516-0.516,0.516h-32.064c-0.285,0-0.517-0.231-0.517-0.516v-18.499
	c5.316,1.262,10.852,1.951,16.549,1.951c5.696,0,11.232-0.688,16.548-1.951L408.822,187.863L408.822,187.863z M392.274,43.057
	c31.226,0,56.629,25.404,56.629,56.629c0,24.899-16.16,46.082-38.538,53.648l13.224-51.793c1.025-4.014-1.397-8.098-5.411-9.123
	c-4.012-1.021-8.098,1.397-9.122,5.412l-0.607,2.379c-0.048-0.001-0.094-0.007-0.142-0.007h-32.064
	c-0.048,0-0.095,0.006-0.143,0.007l-0.607-2.379c-1.023-4.013-5.11-6.433-9.122-5.412c-4.014,1.025-6.437,5.109-5.411,9.123
	l13.224,51.792c-22.377-7.567-38.537-28.749-38.537-53.648C335.646,68.46,361.049,43.057,392.274,43.057z"/>
<path d="M263.969,388.998l-67.528-29.825c-3.089-1.365-5.085-4.428-5.085-7.805v-25.785c17.089-11.087,30.092-27.958,36.213-47.82
	c18.006-20.411,27.916-46.602,27.916-73.867c0-41.619-22.881-77.99-56.721-97.208c0.397-2.312,0.608-4.656,0.608-7.002
	c0-26.236-24.94-47.581-55.597-47.581S88.177,73.45,88.177,99.686c0,2.348,0.224,4.684,0.621,6.995
	c-33.847,19.216-56.734,55.591-56.734,97.215c0,27.299,9.903,53.453,27.917,73.87c6.121,19.861,19.124,36.73,36.212,47.817v25.785
	c0,3.377-1.996,6.44-5.085,7.805L23.58,388.998C9.255,395.324,0,409.53,0,425.189v51.254c0,4.142,3.358,7.5,7.5,7.5
	s7.5-3.358,7.5-7.5v-51.254c0-9.722,5.747-18.542,14.64-22.47l42.88-18.939c13.437,26.908,40.895,44.05,71.255,44.05
	c30.472,0,57.838-17.104,71.266-44.045l42.868,18.933c8.894,3.928,14.641,12.748,14.641,22.47v51.254c0,4.142,3.357,7.5,7.5,7.5
	s7.5-3.358,7.5-7.5v-51.254C287.549,409.53,278.293,395.324,263.969,388.998z M103.177,99.686c0-17.965,18.212-32.581,40.597-32.581
	s40.597,14.616,40.597,32.581c0,0.045-0.004,0.091-0.004,0.136c-12.588-4.927-26.28-7.636-40.593-7.636s-28.004,2.709-40.592,7.636
	C103.182,99.776,103.177,99.731,103.177,99.686z M71.113,251.992v-6.273c0-2.882,1.598-5.523,4.274-7.064
	c9.377-5.399,21.744-15.401,27.406-32.388c1.31-3.93-0.814-8.177-4.744-9.487c-3.931-1.31-8.178,0.814-9.487,4.744
	c-4.171,12.516-13.538,20.031-20.66,24.132c-6.998,4.029-11.433,11.302-11.758,19.142c-5.929-12.687-9.08-26.609-9.08-40.902
	c0-53.326,43.384-96.709,96.71-96.709s96.709,43.384,96.709,96.709c0,14.246-3.146,28.144-9.048,40.817v-6.784
	c0-9.14-3.886-17.762-10.662-23.654c-15.071-13.106-49.183-35.977-108.318-41.891c-4.121-0.418-7.797,2.595-8.209,6.717
	s2.595,7.797,6.717,8.209c55.003,5.5,86.242,26.347,99.967,38.284c3.499,3.042,5.505,7.539,5.505,12.335v14.063
	c0,40.065-32.596,72.661-72.662,72.661C103.708,324.654,71.113,292.059,71.113,251.992z M143.774,412.831
	c-24.403,0-46.502-13.64-57.523-35.115l10.917-4.822c8.52-3.763,14.024-12.212,14.024-21.526v-17.997
	c10.078,4.049,21.073,6.282,32.581,6.282s22.503-2.233,32.581-6.282v17.997c0,9.313,5.505,17.763,14.024,21.526l10.915,4.821
	C190.282,399.214,168.267,412.831,143.774,412.831z"/>
<path d="M63.613,436.879c-4.142,0-7.5,3.358-7.5,7.5v32.064c0,4.142,3.358,7.5,7.5,7.5s7.5-3.358,7.5-7.5v-32.064
	C71.113,440.237,67.755,436.879,63.613,436.879z"/>
<path d="M223.936,436.879c-4.142,0-7.5,3.358-7.5,7.5v32.064c0,4.142,3.358,7.5,7.5,7.5s7.5-3.358,7.5-7.5v-32.064
	C231.436,440.237,228.078,436.879,223.936,436.879z"/>
<path d="M480.451,52.105c-4.143,0-7.5,3.358-7.5,7.5s3.357,7.5,7.5,7.5c9.125,0,16.549,7.423,16.549,16.548v128.258
	c0,9.125-7.424,16.548-16.549,16.548H400.29c-1.585,0-3.13,0.502-4.411,1.435l-71.483,51.988l11.026-44.104
	c0.56-2.24,0.057-4.614-1.365-6.435c-1.421-1.82-3.602-2.884-5.911-2.884h-24.049c-9.125,0-16.548-7.423-16.548-16.548V83.653
	c0-9.125,7.423-16.548,16.548-16.548c4.143,0,7.5-3.358,7.5-7.5s-3.357-7.5-7.5-7.5c-17.396,0-31.548,14.152-31.548,31.548v128.258
	c0,17.396,14.152,31.548,31.548,31.548h14.443l-11.028,44.108c-1.188,4.751,0.668,9.592,4.729,12.331
	c1.972,1.33,4.208,1.993,6.44,1.993c2.365,0,4.727-0.744,6.765-2.226l77.283-56.207h77.723c17.396,0,31.549-14.152,31.549-31.548
	V83.653C512,66.257,497.848,52.105,480.451,52.105z"/>
<g>
</g>
<g>
</g>
<g>
</g>
<g>
</g>
<g>
</g>
<g>
</g>
<g>
</g>
<g>
</g>
<g>
</g>
<g>
</g>
<g>
</g>
<g>
</g>
<g>
</g>
<g>
</g>
<g>
</g>
</svg>
